<?xml version="1.0" standalone="no"?>
<!DOCTYPE svg PUBLIC "-//W3C//DTD SVG 20010904//EN"
 "http://www.w3.org/TR/2001/REC-SVG-20010904/DTD/svg10.dtd">
<svg version="1.0" xmlns="http://www.w3.org/2000/svg"
 width="700.000000pt" height="700.000000pt" viewBox="0 0 700.000000 700.000000"
 preserveAspectRatio="xMidYMid meet">
<metadata>
Created by potrace 1.14, written by Peter Selinger 2001-2017
</metadata>
<g transform="translate(0.000000,700.000000) scale(0.100000,-0.100000)"
fill="#000000" stroke="none">
<path d="M270 6809 c-122 -49 -134 -224 -20 -288 33 -18 54 -21 172 -21 l135
0 7 -157 c49 -1115 216 -1705 624 -2213 77 -95 382 -408 540 -553 l84 -77 -84
-77 c-158 -145 -463 -458 -540 -553 -284 -353 -444 -733 -532 -1265 -44 -261
-77 -604 -92 -947 l-7 -158 -135 0 c-155 0 -193 -13 -231 -80 -42 -74 -21
-160 52 -214 l28 -21 2354 0 2354 0 28 21 c73 54 94 140 52 214 -38 67 -76 80
-231 80 l-135 0 -7 132 c-3 72 -4 133 -1 136 2 3 310 -41 683 -96 723 -108
717 -108 775 -62 14 11 32 39 41 63 12 32 266 1697 266 1744 0 6 64 12 179 16
188 5 214 11 258 59 12 12 26 35 32 50 7 20 6 284 -4 875 -21 1204 -16 1081
-44 1127 -34 54 -86 76 -183 76 -56 0 -78 4 -78 13 0 35 -232 1667 -241 1694
-13 40 -59 80 -107 92 -30 8 -186 -11 -807 -98 -423 -60 -771 -107 -773 -106
-2 2 0 66 4 144 l7 141 135 0 c155 0 193 13 231 80 42 74 21 160 -52 214 l-28
21 -2342 2 c-1543 1 -2351 -2 -2367 -8z m4095 -441 c-55 -1089 -189 -1583
-553 -2035 -118 -147 -364 -391 -685 -681 -65 -59 -87 -97 -87 -152 0 -55 22
-93 87 -152 329 -298 564 -532 682 -678 367 -456 501 -947 556 -2038 l7 -132
-1746 0 -1746 0 0 29 c0 64 21 396 36 561 67 765 205 1181 524 1580 94 117
375 399 588 590 153 137 182 176 182 240 0 64 -29 103 -182 240 -213 191 -494
473 -588 590 -113 142 -181 250 -256 405 -175 366 -256 809 -300 1638 l-6 127
1747 0 1747 0 -7 -132z m2218 -2455 c4 -208 10 -554 13 -768 l7 -391 -889 -17
c-489 -10 -1033 -20 -1209 -24 l-320 -5 -25 38 c-86 132 -322 387 -585 633
l-130 121 135 126 c195 183 370 363 471 487 48 59 93 115 98 125 9 16 77 18
948 33 516 9 1060 17 1209 17 l271 2 6 -377z m-457 -1510 c-2 -10 -53 -348
-112 -750 -90 -605 -111 -733 -124 -733 -23 0 -1223 179 -1227 183 -2 2 -12
84 -23 183 -53 467 -133 795 -267 1092 -4 9 36 12 178 13 101 0 434 7 739 13
843 19 842 19 836 -1z"/>
<path d="M5918 4134 c-3 -35 -6 -38 -49 -48 -59 -16 -130 -57 -165 -98 -51
-61 -68 -114 -68 -210 0 -79 3 -93 34 -155 41 -80 102 -131 196 -165 l62 -22
4 -156 c2 -85 3 -157 1 -159 -9 -12 -93 93 -104 129 -12 38 -13 40 -48 34 -20
-3 -65 -8 -101 -12 l-65 -7 3 -35 c4 -47 51 -147 91 -193 36 -41 136 -94 193
-103 l38 -7 0 -68 0 -69 60 0 59 0 3 71 3 71 62 19 c148 46 243 175 243 332 0
141 -57 232 -185 293 -38 19 -84 37 -101 40 l-32 6 -7 132 c-4 73 -6 140 -4
150 4 17 6 16 30 -3 15 -11 34 -39 43 -62 15 -37 20 -41 44 -36 15 3 55 9 88
12 84 10 89 14 74 61 -37 117 -121 189 -252 218 -24 6 -28 11 -28 41 l0 35
-59 0 -60 0 -3 -36z m7 -463 c-10 -10 -61 36 -79 73 -25 51 -15 99 32 145 l37
36 7 -124 c4 -69 5 -127 3 -130z m196 -302 c37 -26 52 -70 47 -129 -5 -54 -30
-90 -79 -116 -26 -13 -27 -13 -33 24 -3 20 -6 86 -6 145 0 108 0 108 23 101
12 -3 34 -15 48 -25z"/>
<path d="M5361 2335 c-65 -18 -105 -42 -148 -87 -67 -70 -100 -181 -88 -290
l7 -59 -60 7 -59 6 -12 -76 c-6 -42 -11 -81 -11 -85 0 -5 36 -14 79 -21 l79
-12 -5 -37 c-12 -84 -69 -163 -156 -218 -23 -14 -43 -26 -44 -27 -1 -1 11 -44
26 -96 19 -66 32 -94 42 -93 8 1 39 9 69 18 77 23 131 14 277 -45 147 -59 224
-74 307 -60 69 11 96 19 96 28 -1 12 -49 172 -55 181 -3 6 -18 6 -38 0 -65
-19 -134 -10 -235 28 -70 26 -113 37 -157 37 l-60 1 47 46 c52 52 85 109 94
166 l6 39 86 -13 c128 -19 117 -24 129 70 6 45 10 83 9 84 -2 2 -55 11 -118
20 -134 20 -128 13 -128 145 0 84 18 131 62 158 92 56 218 -12 218 -118 0 -27
3 -30 46 -36 26 -3 75 -6 110 -6 l64 0 0 33 c0 90 -60 207 -129 253 -96 63
-245 88 -350 59z"/>
</g>
</svg>
